<svg id="Green_line" data-name="Green line" xmlns="http://www.w3.org/2000/svg" xmlns:xlink="http://www.w3.org/1999/xlink" width="1920.25" height="8.026" viewBox="0 0 1920.25 8.026">
  <defs>
    <clipPath id="clip-path">
      <path id="Path_16" data-name="Path 16" d="M0,0H960.237V8.026H0Z" fill="#fff"/>
    </clipPath>
    <linearGradient id="linear-gradient" x1="-0.002" y1="0.5" x2="1.002" y2="0.5" gradientUnits="objectBoundingBox">
      <stop offset="0" stop-color="#00839e"/>
      <stop offset="0.272" stop-color="#1292aa"/>
      <stop offset="0.723" stop-color="#2aa7ba"/>
      <stop offset="1" stop-color="#33afc0"/>
    </linearGradient>
    <linearGradient id="linear-gradient-2" y1="0.5" x2="1" y2="0.5" gradientUnits="objectBoundingBox">
      <stop offset="0" stop-color="#00839e"/>
      <stop offset="1" stop-color="#33afc0"/>
    </linearGradient>
    <linearGradient id="linear-gradient-3" x1="0" y1="0.5" x2="1" y2="0.5" xlink:href="#linear-gradient-2"/>
    <linearGradient id="linear-gradient-4" x1="0.003" y1="0.5" x2="0.745" y2="0.5" xlink:href="#linear-gradient-2"/>
    <linearGradient id="linear-gradient-5" x1="0.004" y1="0.5" x2="0.952" y2="0.5" xlink:href="#linear-gradient-2"/>
    <linearGradient id="linear-gradient-6" x1="1.002" y1="0.5" x2="-0.002" y2="0.5" xlink:href="#linear-gradient"/>
    <linearGradient id="linear-gradient-7" x1="1" y1="0.5" x2="0" y2="0.5" xlink:href="#linear-gradient-2"/>
    <linearGradient id="linear-gradient-8" x1="1" y1="0.5" x2="0" y2="0.5" xlink:href="#linear-gradient-2"/>
    <linearGradient id="linear-gradient-9" x1="0.997" y1="0.5" x2="0.255" y2="0.5" xlink:href="#linear-gradient-2"/>
    <linearGradient id="linear-gradient-10" x1="0.996" y1="0.5" x2="0.048" y2="0.5" xlink:href="#linear-gradient-2"/>
    <clipPath id="clip-path-2">
      <path id="Path_32" data-name="Path 32" d="M960.237,0H0V8.026H960.237Z" fill="#fff"/>
    </clipPath>
  </defs>
  <g id="Mask_Group_1" data-name="Mask Group 1" clip-path="url(#clip-path)">
    <g id="green_line-2" data-name="green line" transform="translate(0.172 -8.787)">
      <g id="Group_1" data-name="Group 1">
        <path id="Path_1" data-name="Path 1" d="M-7.88-6V14.059H17.944L52.691-6Z" transform="translate(7.88 6.005)" fill="url(#linear-gradient)"/>
        <path id="Path_2" data-name="Path 2" d="M108.692-6H51.322L16.575,14.059H143.4Z" transform="translate(9.25 6.005)" fill="url(#linear-gradient-2)"/>
        <path id="Path_3" data-name="Path 3" d="M177.142-6l34.766,20.064H138.515L103.809-6Z" transform="translate(14.133 6.005)" fill="url(#linear-gradient-3)"/>
        <path id="Path_4" data-name="Path 4" d="M299-6V14.059H230.008L264.754-6Z" transform="translate(21.199 6.005)" fill="url(#linear-gradient-4)"/>
        <path id="Path_5" data-name="Path 5" d="M190.7-6H173.254l34.766,20.064h25.165L267.932-6Z" transform="translate(18.021 6.005)" fill="url(#linear-gradient-5)"/>
      </g>
    </g>
    <g id="green_line-3" data-name="green line" transform="translate(320.143 -8.787)">
      <g id="Group_2" data-name="Group 2">
        <path id="Path_6" data-name="Path 6" d="M52.691-6V14.059H26.866L-7.88-6Z" transform="translate(267.509 6.005)" fill="url(#linear-gradient-6)"/>
        <path id="Path_7" data-name="Path 7" d="M51.282-6h57.371L143.4,14.059H16.575Z" transform="translate(150.976 6.005)" fill="url(#linear-gradient-7)"/>
        <path id="Path_8" data-name="Path 8" d="M138.575-6,103.809,14.059H177.2L211.909-6Z" transform="translate(-9.651 6.005)" fill="url(#linear-gradient-8)"/>
        <path id="Path_9" data-name="Path 9" d="M230.008-6V14.059H299L264.254-6Z" transform="translate(-230.008 6.005)" fill="url(#linear-gradient-9)"/>
        <path id="Path_10" data-name="Path 10" d="M250.489-6h17.443L233.165,14.059H208L173.254-6Z" transform="translate(-139.008 6.005)" fill="url(#linear-gradient-10)"/>
      </g>
    </g>
    <g id="green_line-4" data-name="green line" transform="translate(640.038 -8.787)">
      <g id="Group_3" data-name="Group 3">
        <path id="Path_11" data-name="Path 11" d="M52.691-6V14.059H26.866L-7.88-6Z" transform="translate(267.509 6.005)" fill="url(#linear-gradient-6)"/>
        <path id="Path_12" data-name="Path 12" d="M51.282-6h57.371L143.4,14.059H16.575Z" transform="translate(150.976 6.005)" fill="url(#linear-gradient-7)"/>
        <path id="Path_13" data-name="Path 13" d="M138.575-6,103.809,14.059H177.2L211.909-6Z" transform="translate(-9.651 6.005)" fill="url(#linear-gradient-8)"/>
        <path id="Path_14" data-name="Path 14" d="M230.008-6V14.059H299L264.254-6Z" transform="translate(-230.008 6.005)" fill="url(#linear-gradient-9)"/>
        <path id="Path_15" data-name="Path 15" d="M250.489-6h17.443L233.165,14.059H208L173.254-6Z" transform="translate(-139.008 6.005)" fill="url(#linear-gradient-10)"/>
      </g>
    </g>
  </g>
  <g id="Mask_Group_2" data-name="Mask Group 2" transform="translate(960.012)" clip-path="url(#clip-path-2)">
    <g id="green_line-5" data-name="green line" transform="translate(639.866 -8.787)">
      <g id="Group_4" data-name="Group 4">
        <path id="Path_17" data-name="Path 17" d="M52.691-6V14.059H26.866L-7.88-6Z" transform="translate(267.509 6.005)" fill="url(#linear-gradient-6)"/>
        <path id="Path_18" data-name="Path 18" d="M51.282-6h57.371L143.4,14.059H16.575Z" transform="translate(150.976 6.005)" fill="url(#linear-gradient-7)"/>
        <path id="Path_19" data-name="Path 19" d="M138.575-6,103.809,14.059H177.2L211.909-6Z" transform="translate(-9.651 6.005)" fill="url(#linear-gradient-8)"/>
        <path id="Path_20" data-name="Path 20" d="M230.008-6V14.059H299L264.254-6Z" transform="translate(-230.008 6.005)" fill="url(#linear-gradient-9)"/>
        <path id="Path_21" data-name="Path 21" d="M250.489-6h17.443L233.165,14.059H208L173.254-6Z" transform="translate(-139.008 6.005)" fill="url(#linear-gradient-10)"/>
      </g>
    </g>
    <g id="green_line-6" data-name="green line" transform="translate(319.895 -8.787)">
      <g id="Group_5" data-name="Group 5" transform="translate(0)">
        <path id="Path_22" data-name="Path 22" d="M-7.88-6V14.059H17.944L52.691-6Z" transform="translate(7.88 6.005)" fill="url(#linear-gradient)"/>
        <path id="Path_23" data-name="Path 23" d="M108.692-6H51.322L16.575,14.059H143.4Z" transform="translate(9.25 6.005)" fill="url(#linear-gradient-2)"/>
        <path id="Path_24" data-name="Path 24" d="M177.142-6l34.766,20.064H138.515L103.809-6Z" transform="translate(14.133 6.005)" fill="url(#linear-gradient-3)"/>
        <path id="Path_25" data-name="Path 25" d="M299-6V14.059H230.008L264.754-6Z" transform="translate(21.199 6.005)" fill="url(#linear-gradient-4)"/>
        <path id="Path_26" data-name="Path 26" d="M190.7-6H173.254l34.766,20.064h25.165L267.932-6Z" transform="translate(18.021 6.005)" fill="url(#linear-gradient-5)"/>
      </g>
    </g>
    <g id="green_line-7" data-name="green line" transform="translate(0 -8.787)">
      <g id="Group_6" data-name="Group 6" transform="translate(0)">
        <path id="Path_27" data-name="Path 27" d="M-7.88-6V14.059H17.944L52.691-6Z" transform="translate(7.88 6.005)" fill="url(#linear-gradient)"/>
        <path id="Path_28" data-name="Path 28" d="M108.692-6H51.322L16.575,14.059H143.4Z" transform="translate(9.25 6.005)" fill="url(#linear-gradient-2)"/>
        <path id="Path_29" data-name="Path 29" d="M177.142-6l34.766,20.064H138.515L103.809-6Z" transform="translate(14.133 6.005)" fill="url(#linear-gradient-3)"/>
        <path id="Path_30" data-name="Path 30" d="M299-6V14.059H230.008L264.754-6Z" transform="translate(21.199 6.005)" fill="url(#linear-gradient-4)"/>
        <path id="Path_31" data-name="Path 31" d="M190.7-6H173.254l34.766,20.064h25.165L267.932-6Z" transform="translate(18.021 6.005)" fill="url(#linear-gradient-5)"/>
      </g>
    </g>
  </g>
</svg>
